<?xml version="1.0" encoding="utf-8"?>
<!-- Svg Vector Icons : http://www.onlinewebfonts.com/icon -->
<!DOCTYPE svg PUBLIC "-//W3C//DTD SVG 1.1//EN" "http://www.w3.org/Graphics/SVG/1.1/DTD/svg11.dtd">
<svg
  version="1.1"
  xmlns="http://www.w3.org/2000/svg"
  xmlns:xlink="http://www.w3.org/1999/xlink"
  x="0px"
  y="0px"
  viewBox="0 0 1000 1000"
  enable-background="new 0 0 1000 1000"
  xml:space="preserve">
  <filter id="SVGID_0" y="-40%" height="180%"/>
  <g>
    <path
    d="M753.9,977.9c15.8-16,15.7-41.8-0.2-57.6L332.4,502.8L751.9,79.5c15.9-16,15.7-41.8-0.2-57.7C735.6,6,709.8,6.1,694,22.1L248.1,472c-0.7,0.7-0.9,1.6-1.5,2.3c-0.2,0.2-0.4,0.2-0.5,0.4c-7.9,7.9-11.8,18.3-11.8,28.7c0,10.5,4,21,12.1,28.9l449.9,445.9C712.3,994,738.1,993.9,753.9,977.9z"/>
  </g>
</svg>
