<svg xmlns="http://www.w3.org/2000/svg" xmlns:xlink="http://www.w3.org/1999/xlink" version="1.1" enable-background="new 0 0 1000 1000" xml:space="preserve" width="1000" height="1000" style=""><rect id="backgroundrect" width="100%" height="100%" x="0" y="0" fill="none" stroke="none"/>
  
<g class="currentLayer" style=""><title>Layer 1</title><g id="svg_1" class="selected" transform="rotate(-180 499.99389648437506,500.5347595214843) ">
    <path d="M753.9,978.4347593426704 c15.8,-16 15.7,-41.8 -0.2,-57.6 L332.4,503.33475934267045 L751.9,80.03475934267044 c15.9,-16 15.7,-41.8 -0.2,-57.7 C735.6,6.534759342670441 709.8,6.63475934267044 694,22.634759342670442 L248.1,472.53475934267044 c-0.7000000000000001,0.7000000000000001 -0.9,1.6 -1.5,2.3 c-0.2,0.2 -0.4,0.2 -0.5,0.4 c-7.9,7.9 -11.8,18.3 -11.8,28.7 c0,10.5 4,21 12.1,28.9 l449.9,445.9 C712.3,994.5347593426704 738.1,994.4347593426704 753.9,978.4347593426704 z" id="svg_2"/>
  </g></g></svg>
