<svg xmlns="http://www.w3.org/2000/svg" xmlns:se="http://svg-edit.googlecode.com" xmlns:xlink="http://www.w3.org/1999/xlink" xmlns:dc="http://purl.org/dc/elements/1.1/" xmlns:cc="http://creativecommons.org/ns#" xmlns:rdf="http://www.w3.org/1999/02/22-rdf-syntax-ns#" xmlns:inkscape="http://www.inkscape.org/namespaces/inkscape" width="256" height="256" style="">                                    <title>my vector image</title>                                    <!-- Created with Vector Paint - http://www.vectorpaint.yaks.com/ https://chrome.google.com/webstore/detail/hnbpdiengicdefcjecjbnjnoifekhgdo -->                                    <rect id="backgroundrect" width="100%" height="100%" x="0" y="0" fill="#FFFFFF" stroke="none" style="" class=""/>                                <g class="currentLayer" style=""><title>Layer 1</title><path fill="#4a90d6" fill-opacity="1" stroke="#222222" stroke-opacity="1" stroke-width="2" stroke-dasharray="none" stroke-linejoin="round" stroke-linecap="butt" stroke-dashoffset="" fill-rule="nonzero" opacity="1" marker-start="" marker-mid="" marker-end="" id="svg_1" d="M127.14265649165549,53.39037317595787 C225.2109646965606,54.41342870460157 212.03151330341382,152.86987179278958 254.47593512595972,202.6096267949695 C229.74443232647195,200.38855775524573 221.20720522902138,186.5972818429237 207.741299838197,186.81205062375875 C188.90663349090025,186.3605351327667 182.74576587418318,198.6971454246523 168.13569032596862,200.07249691155127 C149.56505514319784,197.97589355446414 145.7805075072146,175.1746914976831 125.09758350823603,177.3408043265739 C105.91086683046021,177.3737712205568 102.21433836043008,196.8934292914823 86.54812498744485,197.5353670281331 C66.04121298703922,192.4501182966357 61.02450236104583,181.88423446888086 48.966785125471205,184.10648781153185 C28.049152128395576,183.42921457504386 19.805331028566144,196.75798603171285 1.0000000143648862,196.68966086283638 C40.700554359156854,150.54712351424945 33.9305177473787,56.90579421487756 127.14265649165549,53.39037317595787 z" style="color: rgb(0, 0, 0);" class=""/><path fill="#ffffff" stroke="#222222" stroke-opacity="1" stroke-width="2" stroke-dasharray="none" stroke-linejoin="round" stroke-linecap="butt" stroke-dashoffset="" fill-rule="nonzero" opacity="1" marker-start="" marker-mid="" marker-end="" d="M178.44918844791397,105.040113874957 C178.44918844791397,99.977626807301 171.6299886163023,95.87701228249965 163.21122339209035,95.87701228249965 C154.79245816787838,95.87701228249965 147.97325833626672,99.977626807301 147.97325833626672,105.040113874957 C147.97325833626672,110.10260094261301 154.79245816787838,114.20321546741437 163.21122339209035,114.20321546741437 C171.6299886163023,114.20321546741437 178.44918844791397,110.10260094261301 178.44918844791397,105.040113874957 z" id="svg_9" class="" transform="rotate(-21.82512664794922 163.21122741699216,105.04011535644531) " fill-opacity="1"/><path fill="#ffffff" stroke="#222222" stroke-opacity="1" stroke-width="2" stroke-dasharray="none" stroke-linejoin="round" stroke-linecap="butt" stroke-dashoffset="" fill-rule="nonzero" opacity="1" marker-start="" marker-mid="" marker-end="" d="M106.1657688305742,106.98396322347173 C106.1657688305742,101.90227233497077 99.53921423527578,97.78610271528498 91.35828263614195,97.78610271528498 C83.17735103700811,97.78610271528498 76.55079644170972,101.90227233497077 76.55079644170972,106.98396322347173 C76.55079644170972,112.06565411197272 83.17735103700811,116.18182373165848 91.35828263614195,116.18182373165848 C99.53921423527578,116.18182373165848 106.1657688305742,112.06565411197272 106.1657688305742,106.98396322347173 z" id="svg_7" class="" filter="" transform="rotate(20.47968292236328 91.35828399658186,106.98396301269534) " fill-opacity="1"/><path fill="#ffffff" fill-opacity="1" stroke="#222222" stroke-opacity="1" stroke-width="2" stroke-dasharray="none" stroke-linejoin="round" stroke-linecap="butt" stroke-dashoffset="" fill-rule="nonzero" opacity="1" marker-start="" marker-mid="" marker-end="" d="M112.70588277175557,115.65775318283681 C112.70588277175557,112.09170601229262 118.86697537186672,109.20320780415182 126.47326253249776,109.20320780415182 C134.0795496931288,109.20320780415182 140.24064229323994,112.09170601229262 140.24064229323994,115.65775318283681 C140.24064229323994,119.22380035338101 134.0795496931288,122.11229856152181 126.47326253249776,122.11229856152181 C118.86697537186672,122.11229856152181 112.70588277175557,119.22380035338101 112.70588277175557,115.65775318283681 z" id="svg_12" class=""/><path fill="#000000" fill-opacity="1" stroke="#222222" stroke-opacity="1" stroke-width="2" stroke-dasharray="none" stroke-linejoin="round" stroke-linecap="butt" stroke-dashoffset="" fill-rule="nonzero" opacity="1" marker-start="" marker-mid="" marker-end="" d="M87.67379689216614,108.10962677001953 C87.67379689216614,106.17592511256098 89.24009523470757,104.60962677001953 91.17379689216614,104.60962677001953 C93.10749854962471,104.60962677001953 94.67379689216614,106.17592511256098 94.67379689216614,108.10962677001953 C94.67379689216614,110.04332842747809 93.10749854962471,111.60962677001953 91.17379689216614,111.60962677001953 C89.24009523470757,111.60962677001953 87.67379689216614,110.04332842747809 87.67379689216614,108.10962677001953 z" id="svg_15" class=""/><path fill="#000000" fill-opacity="1" stroke="#222222" stroke-opacity="1" stroke-width="2" stroke-dasharray="none" stroke-linejoin="round" stroke-linecap="butt" stroke-dashoffset="" fill-rule="nonzero" opacity="1" marker-start="" marker-mid="" marker-end="" d="M160.40106678009033,105.97058582305908 C160.40106678009033,104.03688416560053 161.96736512263175,102.47058582305908 163.90106678009033,102.47058582305908 C165.83476843754892,102.47058582305908 167.40106678009033,104.03688416560053 167.40106678009033,105.97058582305908 C167.40106678009033,107.90428748051764 165.83476843754892,109.47058582305908 163.90106678009033,109.47058582305908 C161.96736512263175,109.47058582305908 160.40106678009033,107.90428748051764 160.40106678009033,105.97058582305908 z" class="" id="svg_17"/><path fill="#000000" fill-opacity="1" stroke="#222222" stroke-opacity="1" stroke-width="2" stroke-dasharray="none" stroke-linejoin="round" stroke-linecap="butt" stroke-dashoffset="" fill-rule="nonzero" opacity="1" marker-start="" marker-mid="" marker-end="" d="M122.43315505981445,115.59625434875488 C122.43315505981445,113.66255269129633 123.99945340235588,112.09625434875488 125.93315505981445,112.09625434875488 C127.86685671727302,112.09625434875488 129.43315505981445,113.66255269129633 129.43315505981445,115.59625434875488 C129.43315505981445,117.52995600621344 127.86685671727302,119.09625434875488 125.93315505981445,119.09625434875488 C123.99945340235588,119.09625434875488 122.43315505981445,117.52995600621344 122.43315505981445,115.59625434875488 z" class="" id="svg_18"/><path fill="#000000" fill-opacity="1" stroke="#000000" stroke-opacity="1" stroke-width="2" stroke-dasharray="none" stroke-linejoin="round" stroke-linecap="butt" stroke-dashoffset="" fill-rule="nonzero" opacity="1" marker-start="" marker-mid="" marker-end="" id="svg_19" d="M77.19785,155.00535C81.47593,145.91444 103.40106,141.63636 110.88769,141.63636C118.37432,141.63636 123.18716,149.12299 131.20855,149.12299C139.22994,149.12299 147.78609,139.49732 157.94651,137.35828C168.10694,135.21925 180.40641,150.72727 180.40641,155.5401C180.40641,160.35294 150.99464,162.49198 137.0909,163.02674C123.18716,163.5615 72.91978,164.09625 77.19785,155.00535z" style="color: rgb(0, 0, 0);" class=""/></g></svg>